<mxfile host="app.diagrams.net" agent="Mozilla/5.0 (Macintosh; Intel Mac OS X 10_15_7) AppleWebKit/537.36 (KHTML, like Gecko) Chrome/140.0.0.0 Safari/537.36" version="28.2.5">
  <diagram name="Page-1" id="0tJBiLHfoVkDKDsZSzP8">
    <mxGraphModel dx="1930" dy="1433" grid="1" gridSize="10" guides="1" tooltips="1" connect="1" arrows="1" fold="1" page="1" pageScale="1" pageWidth="827" pageHeight="1169" math="0" shadow="0">
      <root>
        <mxCell id="0" />
        <mxCell id="1" parent="0" />
        <mxCell id="_2EReXbHL52eO2ctlhEy-3" value="" style="edgeStyle=orthogonalEdgeStyle;rounded=0;orthogonalLoop=1;jettySize=auto;html=1;" edge="1" parent="1" source="_2EReXbHL52eO2ctlhEy-1" target="_2EReXbHL52eO2ctlhEy-2">
          <mxGeometry relative="1" as="geometry" />
        </mxCell>
        <mxCell id="_2EReXbHL52eO2ctlhEy-1" value="start" style="ellipse;whiteSpace=wrap;html=1;" vertex="1" parent="1">
          <mxGeometry x="360" y="10" width="80" height="40" as="geometry" />
        </mxCell>
        <mxCell id="_2EReXbHL52eO2ctlhEy-5" value="" style="edgeStyle=orthogonalEdgeStyle;rounded=0;orthogonalLoop=1;jettySize=auto;html=1;" edge="1" parent="1" source="_2EReXbHL52eO2ctlhEy-2" target="_2EReXbHL52eO2ctlhEy-4">
          <mxGeometry relative="1" as="geometry" />
        </mxCell>
        <mxCell id="_2EReXbHL52eO2ctlhEy-2" value="NVAL = 50" style="rounded=0;whiteSpace=wrap;html=1;" vertex="1" parent="1">
          <mxGeometry x="360" y="80" width="80" height="30" as="geometry" />
        </mxCell>
        <mxCell id="_2EReXbHL52eO2ctlhEy-7" value="" style="edgeStyle=orthogonalEdgeStyle;rounded=0;orthogonalLoop=1;jettySize=auto;html=1;" edge="1" parent="1" source="_2EReXbHL52eO2ctlhEy-4" target="_2EReXbHL52eO2ctlhEy-6">
          <mxGeometry relative="1" as="geometry" />
        </mxCell>
        <mxCell id="_2EReXbHL52eO2ctlhEy-4" value="val" style="shape=parallelogram;perimeter=parallelogramPerimeter;whiteSpace=wrap;html=1;fixedSize=1;rounded=0;" vertex="1" parent="1">
          <mxGeometry x="340" y="140" width="120" height="30" as="geometry" />
        </mxCell>
        <mxCell id="_2EReXbHL52eO2ctlhEy-9" value="" style="edgeStyle=orthogonalEdgeStyle;rounded=0;orthogonalLoop=1;jettySize=auto;html=1;" edge="1" parent="1" source="_2EReXbHL52eO2ctlhEy-6" target="_2EReXbHL52eO2ctlhEy-8">
          <mxGeometry relative="1" as="geometry" />
        </mxCell>
        <mxCell id="_2EReXbHL52eO2ctlhEy-6" value="min = val&lt;div&gt;max = val&lt;/div&gt;&lt;div&gt;acc = val&lt;/div&gt;" style="whiteSpace=wrap;html=1;rounded=0;" vertex="1" parent="1">
          <mxGeometry x="360" y="200" width="80" height="50" as="geometry" />
        </mxCell>
        <mxCell id="_2EReXbHL52eO2ctlhEy-14" value="" style="edgeStyle=orthogonalEdgeStyle;rounded=0;orthogonalLoop=1;jettySize=auto;html=1;" edge="1" parent="1" source="_2EReXbHL52eO2ctlhEy-8" target="_2EReXbHL52eO2ctlhEy-13">
          <mxGeometry relative="1" as="geometry" />
        </mxCell>
        <mxCell id="_2EReXbHL52eO2ctlhEy-8" value="count = 1" style="whiteSpace=wrap;html=1;rounded=0;" vertex="1" parent="1">
          <mxGeometry x="360" y="280" width="80" height="20" as="geometry" />
        </mxCell>
        <mxCell id="_2EReXbHL52eO2ctlhEy-16" value="" style="edgeStyle=orthogonalEdgeStyle;rounded=0;orthogonalLoop=1;jettySize=auto;html=1;" edge="1" parent="1" source="_2EReXbHL52eO2ctlhEy-13" target="_2EReXbHL52eO2ctlhEy-15">
          <mxGeometry relative="1" as="geometry" />
        </mxCell>
        <mxCell id="_2EReXbHL52eO2ctlhEy-13" value="" style="shape=waypoint;sketch=0;size=6;pointerEvents=1;points=[];fillColor=default;resizable=0;rotatable=0;perimeter=centerPerimeter;snapToPoint=1;rounded=0;" vertex="1" parent="1">
          <mxGeometry x="390" y="320" width="20" height="20" as="geometry" />
        </mxCell>
        <mxCell id="_2EReXbHL52eO2ctlhEy-15" value="count &amp;lt; NVAL" style="rhombus;whiteSpace=wrap;html=1;rounded=0;" vertex="1" parent="1">
          <mxGeometry x="330" y="360" width="140" height="40" as="geometry" />
        </mxCell>
        <mxCell id="_2EReXbHL52eO2ctlhEy-19" value="" style="edgeStyle=orthogonalEdgeStyle;rounded=0;orthogonalLoop=1;jettySize=auto;html=1;" edge="1" parent="1" source="_2EReXbHL52eO2ctlhEy-17" target="_2EReXbHL52eO2ctlhEy-18">
          <mxGeometry relative="1" as="geometry" />
        </mxCell>
        <mxCell id="_2EReXbHL52eO2ctlhEy-17" value="val" style="shape=parallelogram;perimeter=parallelogramPerimeter;whiteSpace=wrap;html=1;fixedSize=1;rounded=0;" vertex="1" parent="1">
          <mxGeometry x="220" y="420" width="120" height="30" as="geometry" />
        </mxCell>
        <mxCell id="_2EReXbHL52eO2ctlhEy-21" value="" style="edgeStyle=orthogonalEdgeStyle;rounded=0;orthogonalLoop=1;jettySize=auto;html=1;" edge="1" parent="1" source="_2EReXbHL52eO2ctlhEy-18" target="_2EReXbHL52eO2ctlhEy-20">
          <mxGeometry relative="1" as="geometry" />
        </mxCell>
        <mxCell id="_2EReXbHL52eO2ctlhEy-18" value="val &amp;gt;= max" style="rhombus;whiteSpace=wrap;html=1;rounded=0;" vertex="1" parent="1">
          <mxGeometry x="240" y="480" width="80" height="45" as="geometry" />
        </mxCell>
        <mxCell id="_2EReXbHL52eO2ctlhEy-38" value="" style="edgeStyle=orthogonalEdgeStyle;rounded=0;orthogonalLoop=1;jettySize=auto;html=1;" edge="1" parent="1" source="_2EReXbHL52eO2ctlhEy-20" target="_2EReXbHL52eO2ctlhEy-37">
          <mxGeometry relative="1" as="geometry">
            <Array as="points">
              <mxPoint x="140" y="640" />
            </Array>
          </mxGeometry>
        </mxCell>
        <mxCell id="_2EReXbHL52eO2ctlhEy-20" value="max = val" style="whiteSpace=wrap;html=1;rounded=0;" vertex="1" parent="1">
          <mxGeometry x="100" y="530" width="80" height="20" as="geometry" />
        </mxCell>
        <mxCell id="_2EReXbHL52eO2ctlhEy-22" value="True" style="text;html=1;align=center;verticalAlign=middle;whiteSpace=wrap;rounded=0;" vertex="1" parent="1">
          <mxGeometry x="190" y="480" width="60" height="30" as="geometry" />
        </mxCell>
        <mxCell id="_2EReXbHL52eO2ctlhEy-23" value="True" style="text;html=1;align=center;verticalAlign=middle;whiteSpace=wrap;rounded=0;" vertex="1" parent="1">
          <mxGeometry x="280" y="357" width="60" height="30" as="geometry" />
        </mxCell>
        <mxCell id="_2EReXbHL52eO2ctlhEy-24" value="False" style="text;html=1;align=center;verticalAlign=middle;whiteSpace=wrap;rounded=0;" vertex="1" parent="1">
          <mxGeometry x="460" y="357" width="60" height="30" as="geometry" />
        </mxCell>
        <mxCell id="_2EReXbHL52eO2ctlhEy-25" value="" style="endArrow=classic;html=1;rounded=0;exitX=0;exitY=0.5;exitDx=0;exitDy=0;entryX=0.5;entryY=0;entryDx=0;entryDy=0;" edge="1" parent="1" source="_2EReXbHL52eO2ctlhEy-15" target="_2EReXbHL52eO2ctlhEy-17">
          <mxGeometry width="50" height="50" relative="1" as="geometry">
            <mxPoint x="390" y="400" as="sourcePoint" />
            <mxPoint x="440" y="350" as="targetPoint" />
            <Array as="points">
              <mxPoint x="280" y="380" />
            </Array>
          </mxGeometry>
        </mxCell>
        <mxCell id="_2EReXbHL52eO2ctlhEy-33" value="" style="edgeStyle=orthogonalEdgeStyle;rounded=0;orthogonalLoop=1;jettySize=auto;html=1;" edge="1" parent="1" source="_2EReXbHL52eO2ctlhEy-26" target="_2EReXbHL52eO2ctlhEy-32">
          <mxGeometry relative="1" as="geometry">
            <Array as="points">
              <mxPoint x="470" y="545" />
              <mxPoint x="470" y="610" />
            </Array>
          </mxGeometry>
        </mxCell>
        <mxCell id="_2EReXbHL52eO2ctlhEy-26" value="val &amp;lt; min" style="rhombus;whiteSpace=wrap;html=1;rounded=0;" vertex="1" parent="1">
          <mxGeometry x="360" y="522.5" width="80" height="45" as="geometry" />
        </mxCell>
        <mxCell id="_2EReXbHL52eO2ctlhEy-27" value="" style="endArrow=classic;html=1;rounded=0;exitX=1;exitY=0.5;exitDx=0;exitDy=0;entryX=0.5;entryY=0;entryDx=0;entryDy=0;" edge="1" parent="1" source="_2EReXbHL52eO2ctlhEy-18" target="_2EReXbHL52eO2ctlhEy-26">
          <mxGeometry width="50" height="50" relative="1" as="geometry">
            <mxPoint x="390" y="400" as="sourcePoint" />
            <mxPoint x="440" y="350" as="targetPoint" />
            <Array as="points">
              <mxPoint x="400" y="503" />
            </Array>
          </mxGeometry>
        </mxCell>
        <mxCell id="_2EReXbHL52eO2ctlhEy-28" value="False" style="text;html=1;align=center;verticalAlign=middle;whiteSpace=wrap;rounded=0;" vertex="1" parent="1">
          <mxGeometry x="320" y="480" width="60" height="30" as="geometry" />
        </mxCell>
        <mxCell id="_2EReXbHL52eO2ctlhEy-30" value="min = val" style="whiteSpace=wrap;html=1;rounded=0;" vertex="1" parent="1">
          <mxGeometry x="260" y="567.5" width="80" height="20" as="geometry" />
        </mxCell>
        <mxCell id="_2EReXbHL52eO2ctlhEy-31" value="" style="endArrow=classic;html=1;rounded=0;exitX=0;exitY=0.5;exitDx=0;exitDy=0;entryX=0.5;entryY=0;entryDx=0;entryDy=0;" edge="1" parent="1" source="_2EReXbHL52eO2ctlhEy-26" target="_2EReXbHL52eO2ctlhEy-30">
          <mxGeometry width="50" height="50" relative="1" as="geometry">
            <mxPoint x="390" y="450" as="sourcePoint" />
            <mxPoint x="440" y="400" as="targetPoint" />
            <Array as="points">
              <mxPoint x="300" y="545" />
            </Array>
          </mxGeometry>
        </mxCell>
        <mxCell id="_2EReXbHL52eO2ctlhEy-32" value="" style="shape=waypoint;sketch=0;size=6;pointerEvents=1;points=[];fillColor=default;resizable=0;rotatable=0;perimeter=centerPerimeter;snapToPoint=1;rounded=0;" vertex="1" parent="1">
          <mxGeometry x="390" y="600" width="20" height="20" as="geometry" />
        </mxCell>
        <mxCell id="_2EReXbHL52eO2ctlhEy-34" value="" style="endArrow=classic;html=1;rounded=0;exitX=0.5;exitY=1;exitDx=0;exitDy=0;" edge="1" parent="1" source="_2EReXbHL52eO2ctlhEy-30" target="_2EReXbHL52eO2ctlhEy-32">
          <mxGeometry width="50" height="50" relative="1" as="geometry">
            <mxPoint x="390" y="450" as="sourcePoint" />
            <mxPoint x="440" y="400" as="targetPoint" />
            <Array as="points">
              <mxPoint x="300" y="610" />
            </Array>
          </mxGeometry>
        </mxCell>
        <mxCell id="_2EReXbHL52eO2ctlhEy-35" value="True" style="text;html=1;align=center;verticalAlign=middle;whiteSpace=wrap;rounded=0;" vertex="1" parent="1">
          <mxGeometry x="319" y="520" width="60" height="30" as="geometry" />
        </mxCell>
        <mxCell id="_2EReXbHL52eO2ctlhEy-36" value="False" style="text;html=1;align=center;verticalAlign=middle;whiteSpace=wrap;rounded=0;" vertex="1" parent="1">
          <mxGeometry x="430" y="520" width="60" height="30" as="geometry" />
        </mxCell>
        <mxCell id="_2EReXbHL52eO2ctlhEy-42" value="" style="edgeStyle=orthogonalEdgeStyle;rounded=0;orthogonalLoop=1;jettySize=auto;html=1;entryX=0.5;entryY=0;entryDx=0;entryDy=0;" edge="1" parent="1" source="_2EReXbHL52eO2ctlhEy-37" target="_2EReXbHL52eO2ctlhEy-40">
          <mxGeometry relative="1" as="geometry" />
        </mxCell>
        <mxCell id="_2EReXbHL52eO2ctlhEy-37" value="" style="shape=waypoint;sketch=0;size=6;pointerEvents=1;points=[];fillColor=default;resizable=0;rotatable=0;perimeter=centerPerimeter;snapToPoint=1;rounded=0;" vertex="1" parent="1">
          <mxGeometry x="270" y="630" width="20" height="20" as="geometry" />
        </mxCell>
        <mxCell id="_2EReXbHL52eO2ctlhEy-39" value="" style="endArrow=classic;html=1;rounded=0;entryX=0.59;entryY=0.245;entryDx=0;entryDy=0;entryPerimeter=0;" edge="1" parent="1" source="_2EReXbHL52eO2ctlhEy-32" target="_2EReXbHL52eO2ctlhEy-37">
          <mxGeometry width="50" height="50" relative="1" as="geometry">
            <mxPoint x="390" y="450" as="sourcePoint" />
            <mxPoint x="440" y="400" as="targetPoint" />
            <Array as="points">
              <mxPoint x="400" y="640" />
            </Array>
          </mxGeometry>
        </mxCell>
        <mxCell id="_2EReXbHL52eO2ctlhEy-40" value="acc = acc + val" style="whiteSpace=wrap;html=1;rounded=0;" vertex="1" parent="1">
          <mxGeometry x="220" y="660" width="120" height="20" as="geometry" />
        </mxCell>
        <mxCell id="_2EReXbHL52eO2ctlhEy-41" value="count = count + 1" style="whiteSpace=wrap;html=1;rounded=0;" vertex="1" parent="1">
          <mxGeometry x="220" y="700" width="120" height="20" as="geometry" />
        </mxCell>
        <mxCell id="_2EReXbHL52eO2ctlhEy-43" value="" style="endArrow=classic;html=1;rounded=0;exitX=0.5;exitY=1;exitDx=0;exitDy=0;entryX=0.5;entryY=0;entryDx=0;entryDy=0;" edge="1" parent="1" source="_2EReXbHL52eO2ctlhEy-40" target="_2EReXbHL52eO2ctlhEy-41">
          <mxGeometry width="50" height="50" relative="1" as="geometry">
            <mxPoint x="290" y="660" as="sourcePoint" />
            <mxPoint x="340" y="610" as="targetPoint" />
          </mxGeometry>
        </mxCell>
        <mxCell id="_2EReXbHL52eO2ctlhEy-44" value="" style="endArrow=classic;html=1;rounded=0;exitX=0.5;exitY=1;exitDx=0;exitDy=0;entryX=0.228;entryY=0.511;entryDx=0;entryDy=0;entryPerimeter=0;" edge="1" parent="1" source="_2EReXbHL52eO2ctlhEy-41" target="_2EReXbHL52eO2ctlhEy-13">
          <mxGeometry width="50" height="50" relative="1" as="geometry">
            <mxPoint x="240" y="540" as="sourcePoint" />
            <mxPoint x="290" y="490" as="targetPoint" />
            <Array as="points">
              <mxPoint x="280" y="740" />
              <mxPoint x="80" y="740" />
              <mxPoint x="80" y="330" />
            </Array>
          </mxGeometry>
        </mxCell>
        <mxCell id="_2EReXbHL52eO2ctlhEy-48" value="" style="edgeStyle=orthogonalEdgeStyle;rounded=0;orthogonalLoop=1;jettySize=auto;html=1;" edge="1" parent="1" source="_2EReXbHL52eO2ctlhEy-45" target="_2EReXbHL52eO2ctlhEy-47">
          <mxGeometry relative="1" as="geometry" />
        </mxCell>
        <mxCell id="_2EReXbHL52eO2ctlhEy-45" value="avg = acc / NVAL" style="whiteSpace=wrap;html=1;rounded=0;" vertex="1" parent="1">
          <mxGeometry x="340" y="760" width="120" height="20" as="geometry" />
        </mxCell>
        <mxCell id="_2EReXbHL52eO2ctlhEy-46" value="" style="endArrow=classic;html=1;rounded=0;entryX=0.5;entryY=0;entryDx=0;entryDy=0;exitX=1;exitY=0.5;exitDx=0;exitDy=0;" edge="1" parent="1" source="_2EReXbHL52eO2ctlhEy-15" target="_2EReXbHL52eO2ctlhEy-45">
          <mxGeometry width="50" height="50" relative="1" as="geometry">
            <mxPoint x="400" y="550" as="sourcePoint" />
            <mxPoint x="450" y="500" as="targetPoint" />
            <Array as="points">
              <mxPoint x="520" y="380" />
              <mxPoint x="520" y="690" />
              <mxPoint x="400" y="690" />
            </Array>
          </mxGeometry>
        </mxCell>
        <mxCell id="_2EReXbHL52eO2ctlhEy-50" value="" style="edgeStyle=orthogonalEdgeStyle;rounded=0;orthogonalLoop=1;jettySize=auto;html=1;" edge="1" parent="1" source="_2EReXbHL52eO2ctlhEy-47" target="_2EReXbHL52eO2ctlhEy-49">
          <mxGeometry relative="1" as="geometry" />
        </mxCell>
        <mxCell id="_2EReXbHL52eO2ctlhEy-47" value="min max, avg" style="shape=parallelogram;perimeter=parallelogramPerimeter;whiteSpace=wrap;html=1;fixedSize=1;rounded=0;" vertex="1" parent="1">
          <mxGeometry x="340" y="810" width="120" height="30" as="geometry" />
        </mxCell>
        <mxCell id="_2EReXbHL52eO2ctlhEy-49" value="end" style="ellipse;whiteSpace=wrap;html=1;" vertex="1" parent="1">
          <mxGeometry x="360" y="870" width="80" height="40" as="geometry" />
        </mxCell>
      </root>
    </mxGraphModel>
  </diagram>
</mxfile>
